P2
# CREATOR: GIMP PNM Filter Version 1.1
8 8
255
203
195
192
189
191
194
198
207
197
191
187
185
186
188
192
202
194
188
186
183
185
187
192
201
198
191
187
186
189
191
196
204
203
198
193
193
193
197
203
208
210
207
203
203
203
208
212
218
220
218
216
217
217
219
224
229
230
228
228
229
230
231
234
238
